<svg xmlns="http://www.w3.org/2000/svg" viewBox="0 0 293.87 26.41"><defs><style>.cls-1{fill:#fff;}</style></defs><title>Recurso 1</title><g id="Capa_2" data-name="Capa 2"><g id="Capa_1-2" data-name="Capa 1"><polygon class="cls-1" points="3.85 0 0 0 0 25.3 24.66 25.3 24.66 21.9 3.85 21.9 3.85 0"/><polygon class="cls-1" points="29.24 25.3 51.91 25.3 51.91 21.95 33.05 21.95 33.05 15.1 48.92 15.1 48.92 11.7 33.1 11.7 33.1 5.89 51.91 5.89 51.91 2.54 29.24 2.54 29.24 25.3"/><polygon class="cls-1" points="81.18 18.77 58.28 1.54 58.28 25.3 62 25.3 62 8.89 84.89 26.21 84.89 2.54 81.18 2.54 81.18 18.77"/><path class="cls-1" d="M106.25,2.75H93.69V25.5h12.56c6.89,0,15.78-3.12,15.78-11.37S113.14,2.75,106.25,2.75m-.32,19.4H97.5V6.1h8.43c5.08,0,12.11,1.59,12.11,8s-7,8-12.11,8"/><polygon class="cls-1" points="128.61 25.5 151.28 25.5 151.28 22.15 132.42 22.15 132.42 15.3 148.29 15.3 148.29 11.9 132.46 11.9 132.46 6.1 151.28 6.1 151.28 2.74 128.61 2.74 128.61 25.5"/><path class="cls-1" d="M180.62,9.09c0-4.85-4.67-6.35-8.79-6.35h-14V25.5h3.77v-10h9.43l6.39,10h4.4l-6.76-10.33c3-.73,5.53-2.5,5.53-6.08m-19,3v-6h9.79c3.81,0,5.26,1,5.26,3s-1.45,3-5.26,3Z"/><polygon class="cls-1" points="207.36 19.61 195.3 1.56 186.55 25.5 190.45 25.5 196.25 9.73 207.36 26.36 218.47 9.73 224.27 25.5 228.17 25.5 219.42 1.56 207.36 19.61"/><polygon class="cls-1" points="290.15 2.74 290.15 18.98 267.25 1.75 267.25 25.5 270.97 25.5 270.97 9.09 293.87 26.41 293.87 2.74 290.15 2.74"/><polygon class="cls-1" points="247.05 1.43 231.59 25.5 236.03 25.5 236.03 25.5 236.04 25.5 238.17 22.18 238.16 22.18 239.34 20.34 239.53 20.03 239.53 20.03 240.47 18.57 240.5 18.57 242.62 15.26 242.6 15.26 247.05 8.37 255.92 22.18 243.09 22.18 240.97 25.5 258.06 25.5 258.06 25.5 262.55 25.5 247.05 1.43"/></g></g></svg>